<mxfile host="app.diagrams.net" modified="2021-03-09T20:37:22.959Z" agent="5.0 (Windows NT 10.0; Win64; x64) AppleWebKit/537.36 (KHTML, like Gecko) Chrome/89.0.4389.72 Safari/537.36 Edg/89.0.774.45" etag="tSCWWEYqRAAYq18im_vk" version="14.4.6" type="github">
  <diagram id="9qnTNjLyjwveOkIdFWt5" name="Page-1">
    <mxGraphModel dx="1902" dy="1985" grid="1" gridSize="10" guides="1" tooltips="1" connect="1" arrows="1" fold="1" page="1" pageScale="1" pageWidth="850" pageHeight="1100" math="0" shadow="0">
      <root>
        <mxCell id="0" />
        <mxCell id="1" parent="0" />
        <mxCell id="PcCV99kFqNMUFxTvr8Xn-1" value="Patient" style="shape=table;startSize=30;container=1;collapsible=1;childLayout=tableLayout;fixedRows=1;rowLines=0;fontStyle=1;align=center;resizeLast=1;fillColor=#dae8fc;strokeColor=#6c8ebf;" vertex="1" parent="1">
          <mxGeometry x="280" y="-290" width="180" height="400" as="geometry" />
        </mxCell>
        <mxCell id="PcCV99kFqNMUFxTvr8Xn-2" value="" style="shape=partialRectangle;collapsible=0;dropTarget=0;pointerEvents=0;fillColor=none;top=0;left=0;bottom=1;right=0;points=[[0,0.5],[1,0.5]];portConstraint=eastwest;" vertex="1" parent="PcCV99kFqNMUFxTvr8Xn-1">
          <mxGeometry y="30" width="180" height="30" as="geometry" />
        </mxCell>
        <mxCell id="PcCV99kFqNMUFxTvr8Xn-3" value="ID" style="shape=partialRectangle;connectable=0;fillColor=none;top=0;left=0;bottom=0;right=0;fontStyle=1;overflow=hidden;" vertex="1" parent="PcCV99kFqNMUFxTvr8Xn-2">
          <mxGeometry width="80" height="30" as="geometry" />
        </mxCell>
        <mxCell id="PcCV99kFqNMUFxTvr8Xn-4" value="doctor" style="shape=partialRectangle;connectable=0;fillColor=none;top=0;left=0;bottom=0;right=0;align=left;spacingLeft=6;fontStyle=5;overflow=hidden;" vertex="1" parent="PcCV99kFqNMUFxTvr8Xn-2">
          <mxGeometry x="80" width="100" height="30" as="geometry" />
        </mxCell>
        <mxCell id="PcCV99kFqNMUFxTvr8Xn-5" value="" style="shape=partialRectangle;collapsible=0;dropTarget=0;pointerEvents=0;fillColor=none;top=0;left=0;bottom=0;right=0;points=[[0,0.5],[1,0.5]];portConstraint=eastwest;" vertex="1" parent="PcCV99kFqNMUFxTvr8Xn-1">
          <mxGeometry y="60" width="180" height="30" as="geometry" />
        </mxCell>
        <mxCell id="PcCV99kFqNMUFxTvr8Xn-6" value="Boolean" style="shape=partialRectangle;connectable=0;fillColor=none;top=0;left=0;bottom=0;right=0;editable=1;overflow=hidden;" vertex="1" parent="PcCV99kFqNMUFxTvr8Xn-5">
          <mxGeometry width="80" height="30" as="geometry" />
        </mxCell>
        <mxCell id="PcCV99kFqNMUFxTvr8Xn-7" value="allergy_asthma" style="shape=partialRectangle;connectable=0;fillColor=none;top=0;left=0;bottom=0;right=0;align=left;spacingLeft=6;overflow=hidden;" vertex="1" parent="PcCV99kFqNMUFxTvr8Xn-5">
          <mxGeometry x="80" width="100" height="30" as="geometry" />
        </mxCell>
        <mxCell id="PcCV99kFqNMUFxTvr8Xn-8" value="" style="shape=partialRectangle;collapsible=0;dropTarget=0;pointerEvents=0;fillColor=none;top=0;left=0;bottom=0;right=0;points=[[0,0.5],[1,0.5]];portConstraint=eastwest;" vertex="1" parent="PcCV99kFqNMUFxTvr8Xn-1">
          <mxGeometry y="90" width="180" height="30" as="geometry" />
        </mxCell>
        <mxCell id="PcCV99kFqNMUFxTvr8Xn-9" value="Boolean" style="shape=partialRectangle;connectable=0;fillColor=none;top=0;left=0;bottom=0;right=0;editable=1;overflow=hidden;" vertex="1" parent="PcCV99kFqNMUFxTvr8Xn-8">
          <mxGeometry width="80" height="30" as="geometry" />
        </mxCell>
        <mxCell id="PcCV99kFqNMUFxTvr8Xn-10" value="allergy_ltx" style="shape=partialRectangle;connectable=0;fillColor=none;top=0;left=0;bottom=0;right=0;align=left;spacingLeft=6;overflow=hidden;" vertex="1" parent="PcCV99kFqNMUFxTvr8Xn-8">
          <mxGeometry x="80" width="100" height="30" as="geometry" />
        </mxCell>
        <mxCell id="PcCV99kFqNMUFxTvr8Xn-11" value="" style="shape=partialRectangle;collapsible=0;dropTarget=0;pointerEvents=0;fillColor=none;top=0;left=0;bottom=0;right=0;points=[[0,0.5],[1,0.5]];portConstraint=eastwest;" vertex="1" parent="PcCV99kFqNMUFxTvr8Xn-1">
          <mxGeometry y="120" width="180" height="30" as="geometry" />
        </mxCell>
        <mxCell id="PcCV99kFqNMUFxTvr8Xn-12" value="Boolean" style="shape=partialRectangle;connectable=0;fillColor=none;top=0;left=0;bottom=0;right=0;editable=1;overflow=hidden;" vertex="1" parent="PcCV99kFqNMUFxTvr8Xn-11">
          <mxGeometry width="80" height="30" as="geometry" />
        </mxCell>
        <mxCell id="PcCV99kFqNMUFxTvr8Xn-13" value="allergy_mridye" style="shape=partialRectangle;connectable=0;fillColor=none;top=0;left=0;bottom=0;right=0;align=left;spacingLeft=6;overflow=hidden;" vertex="1" parent="PcCV99kFqNMUFxTvr8Xn-11">
          <mxGeometry x="80" width="100" height="30" as="geometry" />
        </mxCell>
        <mxCell id="PcCV99kFqNMUFxTvr8Xn-14" value="" style="shape=partialRectangle;collapsible=0;dropTarget=0;pointerEvents=0;fillColor=none;top=0;left=0;bottom=0;right=0;points=[[0,0.5],[1,0.5]];portConstraint=eastwest;" vertex="1" parent="PcCV99kFqNMUFxTvr8Xn-1">
          <mxGeometry y="150" width="180" height="30" as="geometry" />
        </mxCell>
        <mxCell id="PcCV99kFqNMUFxTvr8Xn-15" value="Boolean" style="shape=partialRectangle;connectable=0;fillColor=none;top=0;left=0;bottom=0;right=0;editable=1;overflow=hidden;" vertex="1" parent="PcCV99kFqNMUFxTvr8Xn-14">
          <mxGeometry width="80" height="30" as="geometry" />
        </mxCell>
        <mxCell id="PcCV99kFqNMUFxTvr8Xn-16" value="allergy_xraydye" style="shape=partialRectangle;connectable=0;fillColor=none;top=0;left=0;bottom=0;right=0;align=left;spacingLeft=6;overflow=hidden;" vertex="1" parent="PcCV99kFqNMUFxTvr8Xn-14">
          <mxGeometry x="80" width="100" height="30" as="geometry" />
        </mxCell>
        <mxCell id="PcCV99kFqNMUFxTvr8Xn-17" value="" style="shape=partialRectangle;collapsible=0;dropTarget=0;pointerEvents=0;fillColor=none;top=0;left=0;bottom=0;right=0;points=[[0,0.5],[1,0.5]];portConstraint=eastwest;" vertex="1" parent="PcCV99kFqNMUFxTvr8Xn-1">
          <mxGeometry y="180" width="180" height="30" as="geometry" />
        </mxCell>
        <mxCell id="PcCV99kFqNMUFxTvr8Xn-18" value="DateField" style="shape=partialRectangle;connectable=0;fillColor=none;top=0;left=0;bottom=0;right=0;editable=1;overflow=hidden;" vertex="1" parent="PcCV99kFqNMUFxTvr8Xn-17">
          <mxGeometry width="80" height="30" as="geometry" />
        </mxCell>
        <mxCell id="PcCV99kFqNMUFxTvr8Xn-19" value="dob" style="shape=partialRectangle;connectable=0;fillColor=none;top=0;left=0;bottom=0;right=0;align=left;spacingLeft=6;overflow=hidden;" vertex="1" parent="PcCV99kFqNMUFxTvr8Xn-17">
          <mxGeometry x="80" width="100" height="30" as="geometry" />
        </mxCell>
        <mxCell id="PcCV99kFqNMUFxTvr8Xn-20" value="" style="shape=partialRectangle;collapsible=0;dropTarget=0;pointerEvents=0;fillColor=none;top=0;left=0;bottom=0;right=0;points=[[0,0.5],[1,0.5]];portConstraint=eastwest;" vertex="1" parent="PcCV99kFqNMUFxTvr8Xn-1">
          <mxGeometry y="210" width="180" height="30" as="geometry" />
        </mxCell>
        <mxCell id="PcCV99kFqNMUFxTvr8Xn-21" value="CharField" style="shape=partialRectangle;connectable=0;fillColor=none;top=0;left=0;bottom=0;right=0;editable=1;overflow=hidden;" vertex="1" parent="PcCV99kFqNMUFxTvr8Xn-20">
          <mxGeometry width="80" height="30" as="geometry" />
        </mxCell>
        <mxCell id="PcCV99kFqNMUFxTvr8Xn-22" value="email" style="shape=partialRectangle;connectable=0;fillColor=none;top=0;left=0;bottom=0;right=0;align=left;spacingLeft=6;overflow=hidden;" vertex="1" parent="PcCV99kFqNMUFxTvr8Xn-20">
          <mxGeometry x="80" width="100" height="30" as="geometry" />
        </mxCell>
        <mxCell id="PcCV99kFqNMUFxTvr8Xn-23" value="" style="shape=partialRectangle;collapsible=0;dropTarget=0;pointerEvents=0;fillColor=none;top=0;left=0;bottom=0;right=0;points=[[0,0.5],[1,0.5]];portConstraint=eastwest;" vertex="1" parent="PcCV99kFqNMUFxTvr8Xn-1">
          <mxGeometry y="240" width="180" height="30" as="geometry" />
        </mxCell>
        <mxCell id="PcCV99kFqNMUFxTvr8Xn-24" value="CharField" style="shape=partialRectangle;connectable=0;fillColor=none;top=0;left=0;bottom=0;right=0;editable=1;overflow=hidden;" vertex="1" parent="PcCV99kFqNMUFxTvr8Xn-23">
          <mxGeometry width="80" height="30" as="geometry" />
        </mxCell>
        <mxCell id="PcCV99kFqNMUFxTvr8Xn-25" value="firstNM" style="shape=partialRectangle;connectable=0;fillColor=none;top=0;left=0;bottom=0;right=0;align=left;spacingLeft=6;overflow=hidden;" vertex="1" parent="PcCV99kFqNMUFxTvr8Xn-23">
          <mxGeometry x="80" width="100" height="30" as="geometry" />
        </mxCell>
        <mxCell id="PcCV99kFqNMUFxTvr8Xn-26" value="" style="shape=partialRectangle;collapsible=0;dropTarget=0;pointerEvents=0;fillColor=none;top=0;left=0;bottom=0;right=0;points=[[0,0.5],[1,0.5]];portConstraint=eastwest;" vertex="1" parent="PcCV99kFqNMUFxTvr8Xn-1">
          <mxGeometry y="270" width="180" height="30" as="geometry" />
        </mxCell>
        <mxCell id="PcCV99kFqNMUFxTvr8Xn-27" value="CharField" style="shape=partialRectangle;connectable=0;fillColor=none;top=0;left=0;bottom=0;right=0;editable=1;overflow=hidden;" vertex="1" parent="PcCV99kFqNMUFxTvr8Xn-26">
          <mxGeometry width="80" height="30" as="geometry" />
        </mxCell>
        <mxCell id="PcCV99kFqNMUFxTvr8Xn-28" value="lastNM" style="shape=partialRectangle;connectable=0;fillColor=none;top=0;left=0;bottom=0;right=0;align=left;spacingLeft=6;overflow=hidden;" vertex="1" parent="PcCV99kFqNMUFxTvr8Xn-26">
          <mxGeometry x="80" width="100" height="30" as="geometry" />
        </mxCell>
        <mxCell id="PcCV99kFqNMUFxTvr8Xn-29" value="" style="shape=partialRectangle;collapsible=0;dropTarget=0;pointerEvents=0;fillColor=none;top=0;left=0;bottom=0;right=0;points=[[0,0.5],[1,0.5]];portConstraint=eastwest;" vertex="1" parent="PcCV99kFqNMUFxTvr8Xn-1">
          <mxGeometry y="300" width="180" height="30" as="geometry" />
        </mxCell>
        <mxCell id="PcCV99kFqNMUFxTvr8Xn-30" value="CharField" style="shape=partialRectangle;connectable=0;fillColor=none;top=0;left=0;bottom=0;right=0;editable=1;overflow=hidden;" vertex="1" parent="PcCV99kFqNMUFxTvr8Xn-29">
          <mxGeometry width="80" height="30" as="geometry" />
        </mxCell>
        <mxCell id="PcCV99kFqNMUFxTvr8Xn-31" value="middleNM" style="shape=partialRectangle;connectable=0;fillColor=none;top=0;left=0;bottom=0;right=0;align=left;spacingLeft=6;overflow=hidden;" vertex="1" parent="PcCV99kFqNMUFxTvr8Xn-29">
          <mxGeometry x="80" width="100" height="30" as="geometry" />
        </mxCell>
        <mxCell id="PcCV99kFqNMUFxTvr8Xn-32" value="" style="shape=partialRectangle;collapsible=0;dropTarget=0;pointerEvents=0;fillColor=none;top=0;left=0;bottom=0;right=0;points=[[0,0.5],[1,0.5]];portConstraint=eastwest;" vertex="1" parent="PcCV99kFqNMUFxTvr8Xn-1">
          <mxGeometry y="330" width="180" height="30" as="geometry" />
        </mxCell>
        <mxCell id="PcCV99kFqNMUFxTvr8Xn-33" value="TextField" style="shape=partialRectangle;connectable=0;fillColor=none;top=0;left=0;bottom=0;right=0;editable=1;overflow=hidden;" vertex="1" parent="PcCV99kFqNMUFxTvr8Xn-32">
          <mxGeometry width="80" height="30" as="geometry" />
        </mxCell>
        <mxCell id="PcCV99kFqNMUFxTvr8Xn-34" value="notes" style="shape=partialRectangle;connectable=0;fillColor=none;top=0;left=0;bottom=0;right=0;align=left;spacingLeft=6;overflow=hidden;" vertex="1" parent="PcCV99kFqNMUFxTvr8Xn-32">
          <mxGeometry x="80" width="100" height="30" as="geometry" />
        </mxCell>
        <mxCell id="PcCV99kFqNMUFxTvr8Xn-35" value="" style="shape=partialRectangle;collapsible=0;dropTarget=0;pointerEvents=0;fillColor=none;top=0;left=0;bottom=0;right=0;points=[[0,0.5],[1,0.5]];portConstraint=eastwest;" vertex="1" parent="PcCV99kFqNMUFxTvr8Xn-1">
          <mxGeometry y="360" width="180" height="30" as="geometry" />
        </mxCell>
        <mxCell id="PcCV99kFqNMUFxTvr8Xn-36" value="CharField" style="shape=partialRectangle;connectable=0;fillColor=none;top=0;left=0;bottom=0;right=0;editable=1;overflow=hidden;" vertex="1" parent="PcCV99kFqNMUFxTvr8Xn-35">
          <mxGeometry width="80" height="30" as="geometry" />
        </mxCell>
        <mxCell id="PcCV99kFqNMUFxTvr8Xn-37" value="phone" style="shape=partialRectangle;connectable=0;fillColor=none;top=0;left=0;bottom=0;right=0;align=left;spacingLeft=6;overflow=hidden;" vertex="1" parent="PcCV99kFqNMUFxTvr8Xn-35">
          <mxGeometry x="80" width="100" height="30" as="geometry" />
        </mxCell>
        <mxCell id="PcCV99kFqNMUFxTvr8Xn-38" value="User" style="shape=table;startSize=30;container=1;collapsible=1;childLayout=tableLayout;fixedRows=1;rowLines=0;fontStyle=1;align=center;resizeLast=1;fillColor=#dae8fc;strokeColor=#6c8ebf;" vertex="1" parent="1">
          <mxGeometry x="820" y="120" width="180" height="340" as="geometry" />
        </mxCell>
        <mxCell id="PcCV99kFqNMUFxTvr8Xn-39" value="" style="shape=partialRectangle;collapsible=0;dropTarget=0;pointerEvents=0;fillColor=none;top=0;left=0;bottom=0;right=0;points=[[0,0.5],[1,0.5]];portConstraint=eastwest;" vertex="1" parent="PcCV99kFqNMUFxTvr8Xn-38">
          <mxGeometry y="30" width="180" height="30" as="geometry" />
        </mxCell>
        <mxCell id="PcCV99kFqNMUFxTvr8Xn-40" value="" style="shape=partialRectangle;connectable=0;fillColor=none;top=0;left=0;bottom=0;right=0;editable=1;overflow=hidden;" vertex="1" parent="PcCV99kFqNMUFxTvr8Xn-39">
          <mxGeometry width="90" height="30" as="geometry" />
        </mxCell>
        <mxCell id="PcCV99kFqNMUFxTvr8Xn-41" value="date_joined" style="shape=partialRectangle;connectable=0;fillColor=none;top=0;left=0;bottom=0;right=0;align=left;spacingLeft=6;overflow=hidden;" vertex="1" parent="PcCV99kFqNMUFxTvr8Xn-39">
          <mxGeometry x="90" width="90" height="30" as="geometry" />
        </mxCell>
        <mxCell id="PcCV99kFqNMUFxTvr8Xn-42" value="" style="shape=partialRectangle;collapsible=0;dropTarget=0;pointerEvents=0;fillColor=none;top=0;left=0;bottom=0;right=0;points=[[0,0.5],[1,0.5]];portConstraint=eastwest;" vertex="1" parent="PcCV99kFqNMUFxTvr8Xn-38">
          <mxGeometry y="60" width="180" height="30" as="geometry" />
        </mxCell>
        <mxCell id="PcCV99kFqNMUFxTvr8Xn-43" value="" style="shape=partialRectangle;connectable=0;fillColor=none;top=0;left=0;bottom=0;right=0;editable=1;overflow=hidden;" vertex="1" parent="PcCV99kFqNMUFxTvr8Xn-42">
          <mxGeometry width="90" height="30" as="geometry" />
        </mxCell>
        <mxCell id="PcCV99kFqNMUFxTvr8Xn-44" value="email" style="shape=partialRectangle;connectable=0;fillColor=none;top=0;left=0;bottom=0;right=0;align=left;spacingLeft=6;overflow=hidden;" vertex="1" parent="PcCV99kFqNMUFxTvr8Xn-42">
          <mxGeometry x="90" width="90" height="30" as="geometry" />
        </mxCell>
        <mxCell id="PcCV99kFqNMUFxTvr8Xn-45" value="" style="shape=partialRectangle;collapsible=0;dropTarget=0;pointerEvents=0;fillColor=none;top=0;left=0;bottom=0;right=0;points=[[0,0.5],[1,0.5]];portConstraint=eastwest;" vertex="1" parent="PcCV99kFqNMUFxTvr8Xn-38">
          <mxGeometry y="90" width="180" height="30" as="geometry" />
        </mxCell>
        <mxCell id="PcCV99kFqNMUFxTvr8Xn-46" value="" style="shape=partialRectangle;connectable=0;fillColor=none;top=0;left=0;bottom=0;right=0;editable=1;overflow=hidden;" vertex="1" parent="PcCV99kFqNMUFxTvr8Xn-45">
          <mxGeometry width="90" height="30" as="geometry" />
        </mxCell>
        <mxCell id="PcCV99kFqNMUFxTvr8Xn-47" value="firstNM" style="shape=partialRectangle;connectable=0;fillColor=none;top=0;left=0;bottom=0;right=0;align=left;spacingLeft=6;overflow=hidden;" vertex="1" parent="PcCV99kFqNMUFxTvr8Xn-45">
          <mxGeometry x="90" width="90" height="30" as="geometry" />
        </mxCell>
        <mxCell id="PcCV99kFqNMUFxTvr8Xn-48" value="" style="shape=partialRectangle;collapsible=0;dropTarget=0;pointerEvents=0;fillColor=none;top=0;left=0;bottom=0;right=0;points=[[0,0.5],[1,0.5]];portConstraint=eastwest;" vertex="1" parent="PcCV99kFqNMUFxTvr8Xn-38">
          <mxGeometry y="120" width="180" height="30" as="geometry" />
        </mxCell>
        <mxCell id="PcCV99kFqNMUFxTvr8Xn-49" value="" style="shape=partialRectangle;connectable=0;fillColor=none;top=0;left=0;bottom=0;right=0;editable=1;overflow=hidden;" vertex="1" parent="PcCV99kFqNMUFxTvr8Xn-48">
          <mxGeometry width="90" height="30" as="geometry" />
        </mxCell>
        <mxCell id="PcCV99kFqNMUFxTvr8Xn-50" value="is_active" style="shape=partialRectangle;connectable=0;fillColor=none;top=0;left=0;bottom=0;right=0;align=left;spacingLeft=6;overflow=hidden;" vertex="1" parent="PcCV99kFqNMUFxTvr8Xn-48">
          <mxGeometry x="90" width="90" height="30" as="geometry" />
        </mxCell>
        <mxCell id="PcCV99kFqNMUFxTvr8Xn-51" value="" style="shape=partialRectangle;collapsible=0;dropTarget=0;pointerEvents=0;fillColor=none;top=0;left=0;bottom=0;right=0;points=[[0,0.5],[1,0.5]];portConstraint=eastwest;" vertex="1" parent="PcCV99kFqNMUFxTvr8Xn-38">
          <mxGeometry y="150" width="180" height="30" as="geometry" />
        </mxCell>
        <mxCell id="PcCV99kFqNMUFxTvr8Xn-52" value="" style="shape=partialRectangle;connectable=0;fillColor=none;top=0;left=0;bottom=0;right=0;editable=1;overflow=hidden;" vertex="1" parent="PcCV99kFqNMUFxTvr8Xn-51">
          <mxGeometry width="90" height="30" as="geometry" />
        </mxCell>
        <mxCell id="PcCV99kFqNMUFxTvr8Xn-53" value="is_staff" style="shape=partialRectangle;connectable=0;fillColor=none;top=0;left=0;bottom=0;right=0;align=left;spacingLeft=6;overflow=hidden;" vertex="1" parent="PcCV99kFqNMUFxTvr8Xn-51">
          <mxGeometry x="90" width="90" height="30" as="geometry" />
        </mxCell>
        <mxCell id="PcCV99kFqNMUFxTvr8Xn-54" value="" style="shape=partialRectangle;collapsible=0;dropTarget=0;pointerEvents=0;fillColor=none;top=0;left=0;bottom=0;right=0;points=[[0,0.5],[1,0.5]];portConstraint=eastwest;" vertex="1" parent="PcCV99kFqNMUFxTvr8Xn-38">
          <mxGeometry y="180" width="180" height="30" as="geometry" />
        </mxCell>
        <mxCell id="PcCV99kFqNMUFxTvr8Xn-55" value="" style="shape=partialRectangle;connectable=0;fillColor=none;top=0;left=0;bottom=0;right=0;editable=1;overflow=hidden;" vertex="1" parent="PcCV99kFqNMUFxTvr8Xn-54">
          <mxGeometry width="90" height="30" as="geometry" />
        </mxCell>
        <mxCell id="PcCV99kFqNMUFxTvr8Xn-56" value="is_admin" style="shape=partialRectangle;connectable=0;fillColor=none;top=0;left=0;bottom=0;right=0;align=left;spacingLeft=6;overflow=hidden;" vertex="1" parent="PcCV99kFqNMUFxTvr8Xn-54">
          <mxGeometry x="90" width="90" height="30" as="geometry" />
        </mxCell>
        <mxCell id="PcCV99kFqNMUFxTvr8Xn-57" value="" style="shape=partialRectangle;collapsible=0;dropTarget=0;pointerEvents=0;fillColor=none;top=0;left=0;bottom=0;right=0;points=[[0,0.5],[1,0.5]];portConstraint=eastwest;" vertex="1" parent="PcCV99kFqNMUFxTvr8Xn-38">
          <mxGeometry y="210" width="180" height="30" as="geometry" />
        </mxCell>
        <mxCell id="PcCV99kFqNMUFxTvr8Xn-58" value="" style="shape=partialRectangle;connectable=0;fillColor=none;top=0;left=0;bottom=0;right=0;editable=1;overflow=hidden;" vertex="1" parent="PcCV99kFqNMUFxTvr8Xn-57">
          <mxGeometry width="90" height="30" as="geometry" />
        </mxCell>
        <mxCell id="PcCV99kFqNMUFxTvr8Xn-59" value="last_login" style="shape=partialRectangle;connectable=0;fillColor=none;top=0;left=0;bottom=0;right=0;align=left;spacingLeft=6;overflow=hidden;" vertex="1" parent="PcCV99kFqNMUFxTvr8Xn-57">
          <mxGeometry x="90" width="90" height="30" as="geometry" />
        </mxCell>
        <mxCell id="PcCV99kFqNMUFxTvr8Xn-60" value="" style="shape=partialRectangle;collapsible=0;dropTarget=0;pointerEvents=0;fillColor=none;top=0;left=0;bottom=0;right=0;points=[[0,0.5],[1,0.5]];portConstraint=eastwest;" vertex="1" parent="PcCV99kFqNMUFxTvr8Xn-38">
          <mxGeometry y="240" width="180" height="30" as="geometry" />
        </mxCell>
        <mxCell id="PcCV99kFqNMUFxTvr8Xn-61" value="" style="shape=partialRectangle;connectable=0;fillColor=none;top=0;left=0;bottom=0;right=0;editable=1;overflow=hidden;" vertex="1" parent="PcCV99kFqNMUFxTvr8Xn-60">
          <mxGeometry width="90" height="30" as="geometry" />
        </mxCell>
        <mxCell id="PcCV99kFqNMUFxTvr8Xn-62" value="lastNM" style="shape=partialRectangle;connectable=0;fillColor=none;top=0;left=0;bottom=0;right=0;align=left;spacingLeft=6;overflow=hidden;" vertex="1" parent="PcCV99kFqNMUFxTvr8Xn-60">
          <mxGeometry x="90" width="90" height="30" as="geometry" />
        </mxCell>
        <mxCell id="PcCV99kFqNMUFxTvr8Xn-63" value="" style="shape=partialRectangle;collapsible=0;dropTarget=0;pointerEvents=0;fillColor=none;top=0;left=0;bottom=0;right=0;points=[[0,0.5],[1,0.5]];portConstraint=eastwest;" vertex="1" parent="PcCV99kFqNMUFxTvr8Xn-38">
          <mxGeometry y="270" width="180" height="30" as="geometry" />
        </mxCell>
        <mxCell id="PcCV99kFqNMUFxTvr8Xn-64" value="" style="shape=partialRectangle;connectable=0;fillColor=none;top=0;left=0;bottom=0;right=0;editable=1;overflow=hidden;" vertex="1" parent="PcCV99kFqNMUFxTvr8Xn-63">
          <mxGeometry width="90" height="30" as="geometry" />
        </mxCell>
        <mxCell id="PcCV99kFqNMUFxTvr8Xn-65" value="passwrd" style="shape=partialRectangle;connectable=0;fillColor=none;top=0;left=0;bottom=0;right=0;align=left;spacingLeft=6;overflow=hidden;" vertex="1" parent="PcCV99kFqNMUFxTvr8Xn-63">
          <mxGeometry x="90" width="90" height="30" as="geometry" />
        </mxCell>
        <mxCell id="PcCV99kFqNMUFxTvr8Xn-66" value="" style="shape=partialRectangle;collapsible=0;dropTarget=0;pointerEvents=0;fillColor=none;top=0;left=0;bottom=0;right=0;points=[[0,0.5],[1,0.5]];portConstraint=eastwest;" vertex="1" parent="PcCV99kFqNMUFxTvr8Xn-38">
          <mxGeometry y="300" width="180" height="30" as="geometry" />
        </mxCell>
        <mxCell id="PcCV99kFqNMUFxTvr8Xn-67" value="" style="shape=partialRectangle;connectable=0;fillColor=none;top=0;left=0;bottom=0;right=0;editable=1;overflow=hidden;" vertex="1" parent="PcCV99kFqNMUFxTvr8Xn-66">
          <mxGeometry width="90" height="30" as="geometry" />
        </mxCell>
        <mxCell id="PcCV99kFqNMUFxTvr8Xn-68" value="username" style="shape=partialRectangle;connectable=0;fillColor=none;top=0;left=0;bottom=0;right=0;align=left;spacingLeft=6;overflow=hidden;" vertex="1" parent="PcCV99kFqNMUFxTvr8Xn-66">
          <mxGeometry x="90" width="90" height="30" as="geometry" />
        </mxCell>
        <mxCell id="PcCV99kFqNMUFxTvr8Xn-69" value="Permission" style="shape=table;startSize=30;container=1;collapsible=1;childLayout=tableLayout;fixedRows=1;rowLines=0;fontStyle=1;align=center;resizeLast=1;fillColor=#dae8fc;strokeColor=#6c8ebf;" vertex="1" parent="1">
          <mxGeometry x="490" y="580" width="180" height="130" as="geometry" />
        </mxCell>
        <mxCell id="PcCV99kFqNMUFxTvr8Xn-70" value="" style="shape=partialRectangle;collapsible=0;dropTarget=0;pointerEvents=0;fillColor=none;top=0;left=0;bottom=1;right=0;points=[[0,0.5],[1,0.5]];portConstraint=eastwest;" vertex="1" parent="PcCV99kFqNMUFxTvr8Xn-69">
          <mxGeometry y="30" width="180" height="30" as="geometry" />
        </mxCell>
        <mxCell id="PcCV99kFqNMUFxTvr8Xn-71" value="ID" style="shape=partialRectangle;connectable=0;fillColor=none;top=0;left=0;bottom=0;right=0;fontStyle=1;overflow=hidden;" vertex="1" parent="PcCV99kFqNMUFxTvr8Xn-70">
          <mxGeometry width="90" height="30" as="geometry" />
        </mxCell>
        <mxCell id="PcCV99kFqNMUFxTvr8Xn-72" value="contentType" style="shape=partialRectangle;connectable=0;fillColor=none;top=0;left=0;bottom=0;right=0;align=left;spacingLeft=6;fontStyle=5;overflow=hidden;" vertex="1" parent="PcCV99kFqNMUFxTvr8Xn-70">
          <mxGeometry x="90" width="90" height="30" as="geometry" />
        </mxCell>
        <mxCell id="PcCV99kFqNMUFxTvr8Xn-73" value="" style="shape=partialRectangle;collapsible=0;dropTarget=0;pointerEvents=0;fillColor=none;top=0;left=0;bottom=0;right=0;points=[[0,0.5],[1,0.5]];portConstraint=eastwest;" vertex="1" parent="PcCV99kFqNMUFxTvr8Xn-69">
          <mxGeometry y="60" width="180" height="30" as="geometry" />
        </mxCell>
        <mxCell id="PcCV99kFqNMUFxTvr8Xn-74" value="CharField" style="shape=partialRectangle;connectable=0;fillColor=none;top=0;left=0;bottom=0;right=0;editable=1;overflow=hidden;" vertex="1" parent="PcCV99kFqNMUFxTvr8Xn-73">
          <mxGeometry width="90" height="30" as="geometry" />
        </mxCell>
        <mxCell id="PcCV99kFqNMUFxTvr8Xn-75" value="codename" style="shape=partialRectangle;connectable=0;fillColor=none;top=0;left=0;bottom=0;right=0;align=left;spacingLeft=6;overflow=hidden;" vertex="1" parent="PcCV99kFqNMUFxTvr8Xn-73">
          <mxGeometry x="90" width="90" height="30" as="geometry" />
        </mxCell>
        <mxCell id="PcCV99kFqNMUFxTvr8Xn-76" value="" style="shape=partialRectangle;collapsible=0;dropTarget=0;pointerEvents=0;fillColor=none;top=0;left=0;bottom=0;right=0;points=[[0,0.5],[1,0.5]];portConstraint=eastwest;" vertex="1" parent="PcCV99kFqNMUFxTvr8Xn-69">
          <mxGeometry y="90" width="180" height="30" as="geometry" />
        </mxCell>
        <mxCell id="PcCV99kFqNMUFxTvr8Xn-77" value="CharField" style="shape=partialRectangle;connectable=0;fillColor=none;top=0;left=0;bottom=0;right=0;editable=1;overflow=hidden;" vertex="1" parent="PcCV99kFqNMUFxTvr8Xn-76">
          <mxGeometry width="90" height="30" as="geometry" />
        </mxCell>
        <mxCell id="PcCV99kFqNMUFxTvr8Xn-78" value="name" style="shape=partialRectangle;connectable=0;fillColor=none;top=0;left=0;bottom=0;right=0;align=left;spacingLeft=6;overflow=hidden;" vertex="1" parent="PcCV99kFqNMUFxTvr8Xn-76">
          <mxGeometry x="90" width="90" height="30" as="geometry" />
        </mxCell>
        <mxCell id="PcCV99kFqNMUFxTvr8Xn-79" value="group" style="shape=table;startSize=30;container=1;collapsible=1;childLayout=tableLayout;fixedRows=1;rowLines=0;fontStyle=1;align=center;resizeLast=1;fillColor=#dae8fc;strokeColor=#6c8ebf;" vertex="1" parent="1">
          <mxGeometry x="1150" y="450" width="180" height="70" as="geometry" />
        </mxCell>
        <mxCell id="PcCV99kFqNMUFxTvr8Xn-80" value="" style="shape=partialRectangle;collapsible=0;dropTarget=0;pointerEvents=0;fillColor=none;top=0;left=0;bottom=0;right=0;points=[[0,0.5],[1,0.5]];portConstraint=eastwest;" vertex="1" parent="PcCV99kFqNMUFxTvr8Xn-79">
          <mxGeometry y="30" width="180" height="30" as="geometry" />
        </mxCell>
        <mxCell id="PcCV99kFqNMUFxTvr8Xn-81" value="" style="shape=partialRectangle;connectable=0;fillColor=none;top=0;left=0;bottom=0;right=0;editable=1;overflow=hidden;" vertex="1" parent="PcCV99kFqNMUFxTvr8Xn-80">
          <mxGeometry width="30" height="30" as="geometry" />
        </mxCell>
        <mxCell id="PcCV99kFqNMUFxTvr8Xn-82" value="name" style="shape=partialRectangle;connectable=0;fillColor=none;top=0;left=0;bottom=0;right=0;align=left;spacingLeft=6;overflow=hidden;" vertex="1" parent="PcCV99kFqNMUFxTvr8Xn-80">
          <mxGeometry x="30" width="150" height="30" as="geometry" />
        </mxCell>
        <mxCell id="PcCV99kFqNMUFxTvr8Xn-83" value="Level" style="shape=table;startSize=30;container=1;collapsible=1;childLayout=tableLayout;fixedRows=1;rowLines=0;fontStyle=1;align=center;resizeLast=1;fillColor=#dae8fc;strokeColor=#6c8ebf;" vertex="1" parent="1">
          <mxGeometry x="310" y="-530" width="180" height="70" as="geometry" />
        </mxCell>
        <mxCell id="PcCV99kFqNMUFxTvr8Xn-84" value="" style="shape=partialRectangle;collapsible=0;dropTarget=0;pointerEvents=0;fillColor=none;top=0;left=0;bottom=0;right=0;points=[[0,0.5],[1,0.5]];portConstraint=eastwest;" vertex="1" parent="PcCV99kFqNMUFxTvr8Xn-83">
          <mxGeometry y="30" width="180" height="30" as="geometry" />
        </mxCell>
        <mxCell id="PcCV99kFqNMUFxTvr8Xn-85" value="CharField" style="shape=partialRectangle;connectable=0;fillColor=none;top=0;left=0;bottom=0;right=0;editable=1;overflow=hidden;" vertex="1" parent="PcCV99kFqNMUFxTvr8Xn-84">
          <mxGeometry width="60" height="30" as="geometry" />
        </mxCell>
        <mxCell id="PcCV99kFqNMUFxTvr8Xn-86" value="name" style="shape=partialRectangle;connectable=0;fillColor=none;top=0;left=0;bottom=0;right=0;align=left;spacingLeft=6;overflow=hidden;" vertex="1" parent="PcCV99kFqNMUFxTvr8Xn-84">
          <mxGeometry x="60" width="120" height="30" as="geometry" />
        </mxCell>
        <mxCell id="PcCV99kFqNMUFxTvr8Xn-87" value="Modality" style="shape=table;startSize=30;container=1;collapsible=1;childLayout=tableLayout;fixedRows=1;rowLines=0;fontStyle=1;align=center;resizeLast=1;fillColor=#dae8fc;strokeColor=#6c8ebf;" vertex="1" parent="1">
          <mxGeometry x="650" y="-150" width="180" height="70" as="geometry" />
        </mxCell>
        <mxCell id="PcCV99kFqNMUFxTvr8Xn-88" value="" style="shape=partialRectangle;collapsible=0;dropTarget=0;pointerEvents=0;fillColor=none;top=0;left=0;bottom=0;right=0;points=[[0,0.5],[1,0.5]];portConstraint=eastwest;" vertex="1" parent="PcCV99kFqNMUFxTvr8Xn-87">
          <mxGeometry y="30" width="180" height="30" as="geometry" />
        </mxCell>
        <mxCell id="PcCV99kFqNMUFxTvr8Xn-89" value="CharField" style="shape=partialRectangle;connectable=0;fillColor=none;top=0;left=0;bottom=0;right=0;editable=1;overflow=hidden;" vertex="1" parent="PcCV99kFqNMUFxTvr8Xn-88">
          <mxGeometry width="90" height="30" as="geometry" />
        </mxCell>
        <mxCell id="PcCV99kFqNMUFxTvr8Xn-90" value="name" style="shape=partialRectangle;connectable=0;fillColor=none;top=0;left=0;bottom=0;right=0;align=left;spacingLeft=6;overflow=hidden;" vertex="1" parent="PcCV99kFqNMUFxTvr8Xn-88">
          <mxGeometry x="90" width="90" height="30" as="geometry" />
        </mxCell>
        <mxCell id="PcCV99kFqNMUFxTvr8Xn-91" value="Medical" style="shape=table;startSize=30;container=1;collapsible=1;childLayout=tableLayout;fixedRows=1;rowLines=0;fontStyle=1;align=center;resizeLast=1;fillColor=#dae8fc;strokeColor=#6c8ebf;" vertex="1" parent="1">
          <mxGeometry x="960" y="-110" width="180" height="70" as="geometry" />
        </mxCell>
        <mxCell id="PcCV99kFqNMUFxTvr8Xn-92" value="" style="shape=partialRectangle;collapsible=0;dropTarget=0;pointerEvents=0;fillColor=none;top=0;left=0;bottom=0;right=0;points=[[0,0.5],[1,0.5]];portConstraint=eastwest;" vertex="1" parent="PcCV99kFqNMUFxTvr8Xn-91">
          <mxGeometry y="30" width="180" height="30" as="geometry" />
        </mxCell>
        <mxCell id="PcCV99kFqNMUFxTvr8Xn-93" value="CharField" style="shape=partialRectangle;connectable=0;fillColor=none;top=0;left=0;bottom=0;right=0;editable=1;overflow=hidden;" vertex="1" parent="PcCV99kFqNMUFxTvr8Xn-92">
          <mxGeometry width="90" height="30" as="geometry" />
        </mxCell>
        <mxCell id="PcCV99kFqNMUFxTvr8Xn-94" value="name" style="shape=partialRectangle;connectable=0;fillColor=none;top=0;left=0;bottom=0;right=0;align=left;spacingLeft=6;overflow=hidden;" vertex="1" parent="PcCV99kFqNMUFxTvr8Xn-92">
          <mxGeometry x="90" width="90" height="30" as="geometry" />
        </mxCell>
        <mxCell id="PcCV99kFqNMUFxTvr8Xn-95" value="Order" style="shape=table;startSize=30;container=1;collapsible=1;childLayout=tableLayout;fixedRows=1;rowLines=0;fontStyle=1;align=center;resizeLast=1;fillColor=#dae8fc;strokeColor=#6c8ebf;" vertex="1" parent="1">
          <mxGeometry x="590" y="-580" width="230" height="310" as="geometry" />
        </mxCell>
        <mxCell id="PcCV99kFqNMUFxTvr8Xn-96" value="" style="shape=partialRectangle;collapsible=0;dropTarget=0;pointerEvents=0;fillColor=none;top=0;left=0;bottom=1;right=0;points=[[0,0.5],[1,0.5]];portConstraint=eastwest;" vertex="1" parent="PcCV99kFqNMUFxTvr8Xn-95">
          <mxGeometry y="30" width="230" height="30" as="geometry" />
        </mxCell>
        <mxCell id="PcCV99kFqNMUFxTvr8Xn-97" value="ID" style="shape=partialRectangle;connectable=0;fillColor=none;top=0;left=0;bottom=0;right=0;fontStyle=1;overflow=hidden;" vertex="1" parent="PcCV99kFqNMUFxTvr8Xn-96">
          <mxGeometry width="110" height="30" as="geometry" />
        </mxCell>
        <mxCell id="PcCV99kFqNMUFxTvr8Xn-98" value="patient" style="shape=partialRectangle;connectable=0;fillColor=none;top=0;left=0;bottom=0;right=0;align=left;spacingLeft=6;fontStyle=5;overflow=hidden;" vertex="1" parent="PcCV99kFqNMUFxTvr8Xn-96">
          <mxGeometry x="110" width="120" height="30" as="geometry" />
        </mxCell>
        <mxCell id="PcCV99kFqNMUFxTvr8Xn-99" value="" style="shape=partialRectangle;collapsible=0;dropTarget=0;pointerEvents=0;fillColor=none;top=0;left=0;bottom=0;right=0;points=[[0,0.5],[1,0.5]];portConstraint=eastwest;" vertex="1" parent="PcCV99kFqNMUFxTvr8Xn-95">
          <mxGeometry y="60" width="230" height="30" as="geometry" />
        </mxCell>
        <mxCell id="PcCV99kFqNMUFxTvr8Xn-100" value="ForeignKey (ID)" style="shape=partialRectangle;connectable=0;fillColor=none;top=0;left=0;bottom=0;right=0;editable=1;overflow=hidden;" vertex="1" parent="PcCV99kFqNMUFxTvr8Xn-99">
          <mxGeometry width="110" height="30" as="geometry" />
        </mxCell>
        <mxCell id="PcCV99kFqNMUFxTvr8Xn-101" value="level" style="shape=partialRectangle;connectable=0;fillColor=none;top=0;left=0;bottom=0;right=0;align=left;spacingLeft=6;overflow=hidden;" vertex="1" parent="PcCV99kFqNMUFxTvr8Xn-99">
          <mxGeometry x="110" width="120" height="30" as="geometry" />
        </mxCell>
        <mxCell id="PcCV99kFqNMUFxTvr8Xn-102" value="" style="shape=partialRectangle;collapsible=0;dropTarget=0;pointerEvents=0;fillColor=none;top=0;left=0;bottom=0;right=0;points=[[0,0.5],[1,0.5]];portConstraint=eastwest;" vertex="1" parent="PcCV99kFqNMUFxTvr8Xn-95">
          <mxGeometry y="90" width="230" height="30" as="geometry" />
        </mxCell>
        <mxCell id="PcCV99kFqNMUFxTvr8Xn-103" value="ForeignKey (ID)" style="shape=partialRectangle;connectable=0;fillColor=none;top=0;left=0;bottom=0;right=0;editable=1;overflow=hidden;" vertex="1" parent="PcCV99kFqNMUFxTvr8Xn-102">
          <mxGeometry width="110" height="30" as="geometry" />
        </mxCell>
        <mxCell id="PcCV99kFqNMUFxTvr8Xn-104" value="modality" style="shape=partialRectangle;connectable=0;fillColor=none;top=0;left=0;bottom=0;right=0;align=left;spacingLeft=6;overflow=hidden;" vertex="1" parent="PcCV99kFqNMUFxTvr8Xn-102">
          <mxGeometry x="110" width="120" height="30" as="geometry" />
        </mxCell>
        <mxCell id="PcCV99kFqNMUFxTvr8Xn-105" value="" style="shape=partialRectangle;collapsible=0;dropTarget=0;pointerEvents=0;fillColor=none;top=0;left=0;bottom=0;right=0;points=[[0,0.5],[1,0.5]];portConstraint=eastwest;" vertex="1" parent="PcCV99kFqNMUFxTvr8Xn-95">
          <mxGeometry y="120" width="230" height="30" as="geometry" />
        </mxCell>
        <mxCell id="PcCV99kFqNMUFxTvr8Xn-106" value="ForeignKey (ID)" style="shape=partialRectangle;connectable=0;fillColor=none;top=0;left=0;bottom=0;right=0;editable=1;overflow=hidden;" vertex="1" parent="PcCV99kFqNMUFxTvr8Xn-105">
          <mxGeometry width="110" height="30" as="geometry" />
        </mxCell>
        <mxCell id="PcCV99kFqNMUFxTvr8Xn-107" value="medical" style="shape=partialRectangle;connectable=0;fillColor=none;top=0;left=0;bottom=0;right=0;align=left;spacingLeft=6;overflow=hidden;" vertex="1" parent="PcCV99kFqNMUFxTvr8Xn-105">
          <mxGeometry x="110" width="120" height="30" as="geometry" />
        </mxCell>
        <mxCell id="PcCV99kFqNMUFxTvr8Xn-108" value="" style="shape=partialRectangle;collapsible=0;dropTarget=0;pointerEvents=0;fillColor=none;top=0;left=0;bottom=0;right=0;points=[[0,0.5],[1,0.5]];portConstraint=eastwest;" vertex="1" parent="PcCV99kFqNMUFxTvr8Xn-95">
          <mxGeometry y="150" width="230" height="30" as="geometry" />
        </mxCell>
        <mxCell id="PcCV99kFqNMUFxTvr8Xn-109" value="DateTimeField" style="shape=partialRectangle;connectable=0;fillColor=none;top=0;left=0;bottom=0;right=0;editable=1;overflow=hidden;" vertex="1" parent="PcCV99kFqNMUFxTvr8Xn-108">
          <mxGeometry width="110" height="30" as="geometry" />
        </mxCell>
        <mxCell id="PcCV99kFqNMUFxTvr8Xn-110" value="added_on" style="shape=partialRectangle;connectable=0;fillColor=none;top=0;left=0;bottom=0;right=0;align=left;spacingLeft=6;overflow=hidden;" vertex="1" parent="PcCV99kFqNMUFxTvr8Xn-108">
          <mxGeometry x="110" width="120" height="30" as="geometry" />
        </mxCell>
        <mxCell id="PcCV99kFqNMUFxTvr8Xn-111" value="" style="shape=partialRectangle;collapsible=0;dropTarget=0;pointerEvents=0;fillColor=none;top=0;left=0;bottom=0;right=0;points=[[0,0.5],[1,0.5]];portConstraint=eastwest;" vertex="1" parent="PcCV99kFqNMUFxTvr8Xn-95">
          <mxGeometry y="180" width="230" height="30" as="geometry" />
        </mxCell>
        <mxCell id="PcCV99kFqNMUFxTvr8Xn-112" value="TextField" style="shape=partialRectangle;connectable=0;fillColor=none;top=0;left=0;bottom=0;right=0;editable=1;overflow=hidden;" vertex="1" parent="PcCV99kFqNMUFxTvr8Xn-111">
          <mxGeometry width="110" height="30" as="geometry" />
        </mxCell>
        <mxCell id="PcCV99kFqNMUFxTvr8Xn-113" value="imaging_needed" style="shape=partialRectangle;connectable=0;fillColor=none;top=0;left=0;bottom=0;right=0;align=left;spacingLeft=6;overflow=hidden;" vertex="1" parent="PcCV99kFqNMUFxTvr8Xn-111">
          <mxGeometry x="110" width="120" height="30" as="geometry" />
        </mxCell>
        <mxCell id="PcCV99kFqNMUFxTvr8Xn-114" value="" style="shape=partialRectangle;collapsible=0;dropTarget=0;pointerEvents=0;fillColor=none;top=0;left=0;bottom=0;right=0;points=[[0,0.5],[1,0.5]];portConstraint=eastwest;" vertex="1" parent="PcCV99kFqNMUFxTvr8Xn-95">
          <mxGeometry y="210" width="230" height="30" as="geometry" />
        </mxCell>
        <mxCell id="PcCV99kFqNMUFxTvr8Xn-115" value="DateTimeField" style="shape=partialRectangle;connectable=0;fillColor=none;top=0;left=0;bottom=0;right=0;editable=1;overflow=hidden;" vertex="1" parent="PcCV99kFqNMUFxTvr8Xn-114">
          <mxGeometry width="110" height="30" as="geometry" />
        </mxCell>
        <mxCell id="PcCV99kFqNMUFxTvr8Xn-116" value="last_edit" style="shape=partialRectangle;connectable=0;fillColor=none;top=0;left=0;bottom=0;right=0;align=left;spacingLeft=6;overflow=hidden;" vertex="1" parent="PcCV99kFqNMUFxTvr8Xn-114">
          <mxGeometry x="110" width="120" height="30" as="geometry" />
        </mxCell>
        <mxCell id="PcCV99kFqNMUFxTvr8Xn-117" value="" style="shape=partialRectangle;collapsible=0;dropTarget=0;pointerEvents=0;fillColor=none;top=0;left=0;bottom=0;right=0;points=[[0,0.5],[1,0.5]];portConstraint=eastwest;" vertex="1" parent="PcCV99kFqNMUFxTvr8Xn-95">
          <mxGeometry y="240" width="230" height="30" as="geometry" />
        </mxCell>
        <mxCell id="PcCV99kFqNMUFxTvr8Xn-118" value="TextField" style="shape=partialRectangle;connectable=0;fillColor=none;top=0;left=0;bottom=0;right=0;editable=1;overflow=hidden;" vertex="1" parent="PcCV99kFqNMUFxTvr8Xn-117">
          <mxGeometry width="110" height="30" as="geometry" />
        </mxCell>
        <mxCell id="PcCV99kFqNMUFxTvr8Xn-119" value="report" style="shape=partialRectangle;connectable=0;fillColor=none;top=0;left=0;bottom=0;right=0;align=left;spacingLeft=6;overflow=hidden;" vertex="1" parent="PcCV99kFqNMUFxTvr8Xn-117">
          <mxGeometry x="110" width="120" height="30" as="geometry" />
        </mxCell>
        <mxCell id="PcCV99kFqNMUFxTvr8Xn-120" value="" style="shape=partialRectangle;collapsible=0;dropTarget=0;pointerEvents=0;fillColor=none;top=0;left=0;bottom=0;right=0;points=[[0,0.5],[1,0.5]];portConstraint=eastwest;" vertex="1" parent="PcCV99kFqNMUFxTvr8Xn-95">
          <mxGeometry y="270" width="230" height="30" as="geometry" />
        </mxCell>
        <mxCell id="PcCV99kFqNMUFxTvr8Xn-121" value="TextField" style="shape=partialRectangle;connectable=0;fillColor=none;top=0;left=0;bottom=0;right=0;editable=1;overflow=hidden;" vertex="1" parent="PcCV99kFqNMUFxTvr8Xn-120">
          <mxGeometry width="110" height="30" as="geometry" />
        </mxCell>
        <mxCell id="PcCV99kFqNMUFxTvr8Xn-122" value="visit_reason" style="shape=partialRectangle;connectable=0;fillColor=none;top=0;left=0;bottom=0;right=0;align=left;spacingLeft=6;overflow=hidden;" vertex="1" parent="PcCV99kFqNMUFxTvr8Xn-120">
          <mxGeometry x="110" width="120" height="30" as="geometry" />
        </mxCell>
        <mxCell id="PcCV99kFqNMUFxTvr8Xn-123" value="Image" style="shape=table;startSize=40;container=1;collapsible=1;childLayout=tableLayout;fixedRows=1;rowLines=0;fontStyle=1;align=center;resizeLast=1;fillColor=#dae8fc;strokeColor=#6c8ebf;" vertex="1" parent="1">
          <mxGeometry x="370" y="-920" width="200" height="220" as="geometry" />
        </mxCell>
        <mxCell id="PcCV99kFqNMUFxTvr8Xn-124" value="" style="shape=partialRectangle;collapsible=0;dropTarget=0;pointerEvents=0;fillColor=none;top=0;left=0;bottom=1;right=0;points=[[0,0.5],[1,0.5]];portConstraint=eastwest;" vertex="1" parent="PcCV99kFqNMUFxTvr8Xn-123">
          <mxGeometry y="40" width="200" height="30" as="geometry" />
        </mxCell>
        <mxCell id="PcCV99kFqNMUFxTvr8Xn-125" value="ID" style="shape=partialRectangle;connectable=0;fillColor=none;top=0;left=0;bottom=0;right=0;fontStyle=1;overflow=hidden;" vertex="1" parent="PcCV99kFqNMUFxTvr8Xn-124">
          <mxGeometry width="100" height="30" as="geometry" />
        </mxCell>
        <mxCell id="PcCV99kFqNMUFxTvr8Xn-126" value="order" style="shape=partialRectangle;connectable=0;fillColor=none;top=0;left=0;bottom=0;right=0;align=left;spacingLeft=6;fontStyle=5;overflow=hidden;" vertex="1" parent="PcCV99kFqNMUFxTvr8Xn-124">
          <mxGeometry x="100" width="100" height="30" as="geometry" />
        </mxCell>
        <mxCell id="PcCV99kFqNMUFxTvr8Xn-127" value="" style="shape=partialRectangle;collapsible=0;dropTarget=0;pointerEvents=0;fillColor=none;top=0;left=0;bottom=0;right=0;points=[[0,0.5],[1,0.5]];portConstraint=eastwest;" vertex="1" parent="PcCV99kFqNMUFxTvr8Xn-123">
          <mxGeometry y="70" width="200" height="30" as="geometry" />
        </mxCell>
        <mxCell id="PcCV99kFqNMUFxTvr8Xn-128" value="ForeignKey (ID)" style="shape=partialRectangle;connectable=0;fillColor=none;top=0;left=0;bottom=0;right=0;editable=1;overflow=hidden;" vertex="1" parent="PcCV99kFqNMUFxTvr8Xn-127">
          <mxGeometry width="100" height="30" as="geometry" />
        </mxCell>
        <mxCell id="PcCV99kFqNMUFxTvr8Xn-129" value="modality" style="shape=partialRectangle;connectable=0;fillColor=none;top=0;left=0;bottom=0;right=0;align=left;spacingLeft=6;overflow=hidden;" vertex="1" parent="PcCV99kFqNMUFxTvr8Xn-127">
          <mxGeometry x="100" width="100" height="30" as="geometry" />
        </mxCell>
        <mxCell id="PcCV99kFqNMUFxTvr8Xn-130" value="" style="shape=partialRectangle;collapsible=0;dropTarget=0;pointerEvents=0;fillColor=none;top=0;left=0;bottom=0;right=0;points=[[0,0.5],[1,0.5]];portConstraint=eastwest;" vertex="1" parent="PcCV99kFqNMUFxTvr8Xn-123">
          <mxGeometry y="100" width="200" height="30" as="geometry" />
        </mxCell>
        <mxCell id="PcCV99kFqNMUFxTvr8Xn-131" value="DateTimeField" style="shape=partialRectangle;connectable=0;fillColor=none;top=0;left=0;bottom=0;right=0;editable=1;overflow=hidden;" vertex="1" parent="PcCV99kFqNMUFxTvr8Xn-130">
          <mxGeometry width="100" height="30" as="geometry" />
        </mxCell>
        <mxCell id="PcCV99kFqNMUFxTvr8Xn-132" value="added_on" style="shape=partialRectangle;connectable=0;fillColor=none;top=0;left=0;bottom=0;right=0;align=left;spacingLeft=6;overflow=hidden;" vertex="1" parent="PcCV99kFqNMUFxTvr8Xn-130">
          <mxGeometry x="100" width="100" height="30" as="geometry" />
        </mxCell>
        <mxCell id="PcCV99kFqNMUFxTvr8Xn-133" value="" style="shape=partialRectangle;collapsible=0;dropTarget=0;pointerEvents=0;fillColor=none;top=0;left=0;bottom=0;right=0;points=[[0,0.5],[1,0.5]];portConstraint=eastwest;" vertex="1" parent="PcCV99kFqNMUFxTvr8Xn-123">
          <mxGeometry y="130" width="200" height="30" as="geometry" />
        </mxCell>
        <mxCell id="PcCV99kFqNMUFxTvr8Xn-134" value="FileField" style="shape=partialRectangle;connectable=0;fillColor=none;top=0;left=0;bottom=0;right=0;editable=1;overflow=hidden;" vertex="1" parent="PcCV99kFqNMUFxTvr8Xn-133">
          <mxGeometry width="100" height="30" as="geometry" />
        </mxCell>
        <mxCell id="PcCV99kFqNMUFxTvr8Xn-135" value="image" style="shape=partialRectangle;connectable=0;fillColor=none;top=0;left=0;bottom=0;right=0;align=left;spacingLeft=6;overflow=hidden;" vertex="1" parent="PcCV99kFqNMUFxTvr8Xn-133">
          <mxGeometry x="100" width="100" height="30" as="geometry" />
        </mxCell>
        <mxCell id="PcCV99kFqNMUFxTvr8Xn-136" value="" style="shape=partialRectangle;collapsible=0;dropTarget=0;pointerEvents=0;fillColor=none;top=0;left=0;bottom=0;right=0;points=[[0,0.5],[1,0.5]];portConstraint=eastwest;" vertex="1" parent="PcCV99kFqNMUFxTvr8Xn-123">
          <mxGeometry y="160" width="200" height="30" as="geometry" />
        </mxCell>
        <mxCell id="PcCV99kFqNMUFxTvr8Xn-137" value="CharField" style="shape=partialRectangle;connectable=0;fillColor=none;top=0;left=0;bottom=0;right=0;editable=1;overflow=hidden;" vertex="1" parent="PcCV99kFqNMUFxTvr8Xn-136">
          <mxGeometry width="100" height="30" as="geometry" />
        </mxCell>
        <mxCell id="PcCV99kFqNMUFxTvr8Xn-138" value="label" style="shape=partialRectangle;connectable=0;fillColor=none;top=0;left=0;bottom=0;right=0;align=left;spacingLeft=6;overflow=hidden;" vertex="1" parent="PcCV99kFqNMUFxTvr8Xn-136">
          <mxGeometry x="100" width="100" height="30" as="geometry" />
        </mxCell>
        <mxCell id="PcCV99kFqNMUFxTvr8Xn-139" value="" style="shape=partialRectangle;collapsible=0;dropTarget=0;pointerEvents=0;fillColor=none;top=0;left=0;bottom=0;right=0;points=[[0,0.5],[1,0.5]];portConstraint=eastwest;" vertex="1" parent="PcCV99kFqNMUFxTvr8Xn-123">
          <mxGeometry y="190" width="200" height="30" as="geometry" />
        </mxCell>
        <mxCell id="PcCV99kFqNMUFxTvr8Xn-140" value="CharField" style="shape=partialRectangle;connectable=0;fillColor=none;top=0;left=0;bottom=0;right=0;editable=1;overflow=hidden;" vertex="1" parent="PcCV99kFqNMUFxTvr8Xn-139">
          <mxGeometry width="100" height="30" as="geometry" />
        </mxCell>
        <mxCell id="PcCV99kFqNMUFxTvr8Xn-141" value="user" style="shape=partialRectangle;connectable=0;fillColor=none;top=0;left=0;bottom=0;right=0;align=left;spacingLeft=6;overflow=hidden;" vertex="1" parent="PcCV99kFqNMUFxTvr8Xn-139">
          <mxGeometry x="100" width="100" height="30" as="geometry" />
        </mxCell>
        <mxCell id="PcCV99kFqNMUFxTvr8Xn-142" value="orderKey" style="shape=table;startSize=30;container=1;collapsible=1;childLayout=tableLayout;fixedRows=1;rowLines=0;fontStyle=1;align=center;resizeLast=1;fillColor=#dae8fc;strokeColor=#6c8ebf;" vertex="1" parent="1">
          <mxGeometry x="980" y="-800" width="200" height="160" as="geometry" />
        </mxCell>
        <mxCell id="PcCV99kFqNMUFxTvr8Xn-143" value="" style="shape=partialRectangle;collapsible=0;dropTarget=0;pointerEvents=0;fillColor=none;top=0;left=0;bottom=1;right=0;points=[[0,0.5],[1,0.5]];portConstraint=eastwest;" vertex="1" parent="PcCV99kFqNMUFxTvr8Xn-142">
          <mxGeometry y="30" width="200" height="30" as="geometry" />
        </mxCell>
        <mxCell id="PcCV99kFqNMUFxTvr8Xn-144" value="ID" style="shape=partialRectangle;connectable=0;fillColor=none;top=0;left=0;bottom=0;right=0;fontStyle=1;overflow=hidden;" vertex="1" parent="PcCV99kFqNMUFxTvr8Xn-143">
          <mxGeometry width="90" height="30" as="geometry" />
        </mxCell>
        <mxCell id="PcCV99kFqNMUFxTvr8Xn-145" value="order" style="shape=partialRectangle;connectable=0;fillColor=none;top=0;left=0;bottom=0;right=0;align=left;spacingLeft=6;fontStyle=5;overflow=hidden;" vertex="1" parent="PcCV99kFqNMUFxTvr8Xn-143">
          <mxGeometry x="90" width="110" height="30" as="geometry" />
        </mxCell>
        <mxCell id="PcCV99kFqNMUFxTvr8Xn-146" value="" style="shape=partialRectangle;collapsible=0;dropTarget=0;pointerEvents=0;fillColor=none;top=0;left=0;bottom=0;right=0;points=[[0,0.5],[1,0.5]];portConstraint=eastwest;" vertex="1" parent="PcCV99kFqNMUFxTvr8Xn-142">
          <mxGeometry y="60" width="200" height="30" as="geometry" />
        </mxCell>
        <mxCell id="PcCV99kFqNMUFxTvr8Xn-147" value="DateTimeField" style="shape=partialRectangle;connectable=0;fillColor=none;top=0;left=0;bottom=0;right=0;editable=1;overflow=hidden;" vertex="1" parent="PcCV99kFqNMUFxTvr8Xn-146">
          <mxGeometry width="90" height="30" as="geometry" />
        </mxCell>
        <mxCell id="PcCV99kFqNMUFxTvr8Xn-148" value="date_created" style="shape=partialRectangle;connectable=0;fillColor=none;top=0;left=0;bottom=0;right=0;align=left;spacingLeft=6;overflow=hidden;" vertex="1" parent="PcCV99kFqNMUFxTvr8Xn-146">
          <mxGeometry x="90" width="110" height="30" as="geometry" />
        </mxCell>
        <mxCell id="PcCV99kFqNMUFxTvr8Xn-149" value="" style="shape=partialRectangle;collapsible=0;dropTarget=0;pointerEvents=0;fillColor=none;top=0;left=0;bottom=0;right=0;points=[[0,0.5],[1,0.5]];portConstraint=eastwest;" vertex="1" parent="PcCV99kFqNMUFxTvr8Xn-142">
          <mxGeometry y="90" width="200" height="30" as="geometry" />
        </mxCell>
        <mxCell id="PcCV99kFqNMUFxTvr8Xn-150" value="Charfield" style="shape=partialRectangle;connectable=0;fillColor=none;top=0;left=0;bottom=0;right=0;editable=1;overflow=hidden;" vertex="1" parent="PcCV99kFqNMUFxTvr8Xn-149">
          <mxGeometry width="90" height="30" as="geometry" />
        </mxCell>
        <mxCell id="PcCV99kFqNMUFxTvr8Xn-151" value="email" style="shape=partialRectangle;connectable=0;fillColor=none;top=0;left=0;bottom=0;right=0;align=left;spacingLeft=6;overflow=hidden;" vertex="1" parent="PcCV99kFqNMUFxTvr8Xn-149">
          <mxGeometry x="90" width="110" height="30" as="geometry" />
        </mxCell>
        <mxCell id="PcCV99kFqNMUFxTvr8Xn-152" value="" style="shape=partialRectangle;collapsible=0;dropTarget=0;pointerEvents=0;fillColor=none;top=0;left=0;bottom=0;right=0;points=[[0,0.5],[1,0.5]];portConstraint=eastwest;" vertex="1" parent="PcCV99kFqNMUFxTvr8Xn-142">
          <mxGeometry y="120" width="200" height="30" as="geometry" />
        </mxCell>
        <mxCell id="PcCV99kFqNMUFxTvr8Xn-153" value="Charfield" style="shape=partialRectangle;connectable=0;fillColor=none;top=0;left=0;bottom=0;right=0;editable=1;overflow=hidden;" vertex="1" parent="PcCV99kFqNMUFxTvr8Xn-152">
          <mxGeometry width="90" height="30" as="geometry" />
        </mxCell>
        <mxCell id="PcCV99kFqNMUFxTvr8Xn-154" value="secret_key" style="shape=partialRectangle;connectable=0;fillColor=none;top=0;left=0;bottom=0;right=0;align=left;spacingLeft=6;overflow=hidden;" vertex="1" parent="PcCV99kFqNMUFxTvr8Xn-152">
          <mxGeometry x="90" width="110" height="30" as="geometry" />
        </mxCell>
        <mxCell id="PcCV99kFqNMUFxTvr8Xn-157" value="" style="edgeStyle=entityRelationEdgeStyle;fontSize=12;html=1;endArrow=ERmandOne;startArrow=ERmandOne;entryX=0;entryY=0.5;entryDx=0;entryDy=0;" edge="1" parent="1" source="PcCV99kFqNMUFxTvr8Xn-83" target="PcCV99kFqNMUFxTvr8Xn-99">
          <mxGeometry width="100" height="100" relative="1" as="geometry">
            <mxPoint x="420" y="-510" as="sourcePoint" />
            <mxPoint x="520" y="-610" as="targetPoint" />
          </mxGeometry>
        </mxCell>
        <mxCell id="PcCV99kFqNMUFxTvr8Xn-158" value="" style="edgeStyle=entityRelationEdgeStyle;fontSize=12;html=1;endArrow=ERoneToMany;startArrow=ERoneToMany;entryX=0;entryY=0.5;entryDx=0;entryDy=0;" edge="1" parent="1" target="PcCV99kFqNMUFxTvr8Xn-96">
          <mxGeometry width="100" height="100" relative="1" as="geometry">
            <mxPoint x="460" y="-270" as="sourcePoint" />
            <mxPoint x="560" y="-370" as="targetPoint" />
          </mxGeometry>
        </mxCell>
        <mxCell id="PcCV99kFqNMUFxTvr8Xn-159" value="" style="edgeStyle=entityRelationEdgeStyle;fontSize=12;html=1;endArrow=ERmandOne;startArrow=ERmandOne;" edge="1" parent="1" source="PcCV99kFqNMUFxTvr8Xn-87" target="PcCV99kFqNMUFxTvr8Xn-102">
          <mxGeometry width="100" height="100" relative="1" as="geometry">
            <mxPoint x="770" y="-170" as="sourcePoint" />
            <mxPoint x="870" y="-270" as="targetPoint" />
          </mxGeometry>
        </mxCell>
        <mxCell id="PcCV99kFqNMUFxTvr8Xn-160" value="" style="edgeStyle=entityRelationEdgeStyle;fontSize=12;html=1;endArrow=ERmany;startArrow=ERmany;" edge="1" parent="1" source="PcCV99kFqNMUFxTvr8Xn-38" target="PcCV99kFqNMUFxTvr8Xn-91">
          <mxGeometry width="100" height="100" relative="1" as="geometry">
            <mxPoint x="840" y="50" as="sourcePoint" />
            <mxPoint x="940" y="-50" as="targetPoint" />
          </mxGeometry>
        </mxCell>
        <mxCell id="PcCV99kFqNMUFxTvr8Xn-161" value="" style="edgeStyle=entityRelationEdgeStyle;fontSize=12;html=1;endArrow=ERmandOne;startArrow=ERmandOne;" edge="1" parent="1" source="PcCV99kFqNMUFxTvr8Xn-91" target="PcCV99kFqNMUFxTvr8Xn-105">
          <mxGeometry width="100" height="100" relative="1" as="geometry">
            <mxPoint x="930" y="-280" as="sourcePoint" />
            <mxPoint x="1030" y="-380" as="targetPoint" />
          </mxGeometry>
        </mxCell>
        <mxCell id="PcCV99kFqNMUFxTvr8Xn-162" value="" style="edgeStyle=entityRelationEdgeStyle;fontSize=12;html=1;endArrow=ERmany;startArrow=ERmany;exitX=1;exitY=0.5;exitDx=0;exitDy=0;" edge="1" parent="1" source="PcCV99kFqNMUFxTvr8Xn-32" target="PcCV99kFqNMUFxTvr8Xn-38">
          <mxGeometry width="100" height="100" relative="1" as="geometry">
            <mxPoint x="340" y="10" as="sourcePoint" />
            <mxPoint x="440" y="-90" as="targetPoint" />
          </mxGeometry>
        </mxCell>
        <mxCell id="PcCV99kFqNMUFxTvr8Xn-163" value="" style="edgeStyle=entityRelationEdgeStyle;fontSize=12;html=1;endArrow=ERmandOne;startArrow=ERmandOne;" edge="1" parent="1" source="PcCV99kFqNMUFxTvr8Xn-38" target="PcCV99kFqNMUFxTvr8Xn-69">
          <mxGeometry width="100" height="100" relative="1" as="geometry">
            <mxPoint x="650" y="500" as="sourcePoint" />
            <mxPoint x="980" y="770" as="targetPoint" />
          </mxGeometry>
        </mxCell>
        <mxCell id="PcCV99kFqNMUFxTvr8Xn-164" value="" style="edgeStyle=entityRelationEdgeStyle;fontSize=12;html=1;endArrow=ERmany;startArrow=ERmany;" edge="1" parent="1" source="PcCV99kFqNMUFxTvr8Xn-69" target="PcCV99kFqNMUFxTvr8Xn-79">
          <mxGeometry width="100" height="100" relative="1" as="geometry">
            <mxPoint x="670" y="670" as="sourcePoint" />
            <mxPoint x="770" y="570" as="targetPoint" />
          </mxGeometry>
        </mxCell>
        <mxCell id="PcCV99kFqNMUFxTvr8Xn-165" value="" style="edgeStyle=entityRelationEdgeStyle;fontSize=12;html=1;endArrow=ERzeroToMany;startArrow=ERmandOne;" edge="1" parent="1" source="PcCV99kFqNMUFxTvr8Xn-69" target="PcCV99kFqNMUFxTvr8Xn-38">
          <mxGeometry width="100" height="100" relative="1" as="geometry">
            <mxPoint x="670" y="510" as="sourcePoint" />
            <mxPoint x="770" y="410" as="targetPoint" />
          </mxGeometry>
        </mxCell>
        <mxCell id="PcCV99kFqNMUFxTvr8Xn-166" value="" style="edgeStyle=entityRelationEdgeStyle;fontSize=12;html=1;endArrow=ERoneToMany;startArrow=ERoneToMany;" edge="1" parent="1" source="PcCV99kFqNMUFxTvr8Xn-79" target="PcCV99kFqNMUFxTvr8Xn-38">
          <mxGeometry width="100" height="100" relative="1" as="geometry">
            <mxPoint x="670" y="510" as="sourcePoint" />
            <mxPoint x="770" y="410" as="targetPoint" />
          </mxGeometry>
        </mxCell>
        <mxCell id="PcCV99kFqNMUFxTvr8Xn-167" value="" style="edgeStyle=entityRelationEdgeStyle;fontSize=12;html=1;endArrow=ERzeroToMany;startArrow=ERmandOne;" edge="1" parent="1" source="PcCV99kFqNMUFxTvr8Xn-95" target="PcCV99kFqNMUFxTvr8Xn-123">
          <mxGeometry width="100" height="100" relative="1" as="geometry">
            <mxPoint x="480" y="-650" as="sourcePoint" />
            <mxPoint x="370" y="-860" as="targetPoint" />
          </mxGeometry>
        </mxCell>
        <mxCell id="PcCV99kFqNMUFxTvr8Xn-168" value="" style="edgeStyle=entityRelationEdgeStyle;fontSize=12;html=1;endArrow=ERzeroToMany;startArrow=ERmandOne;exitX=1;exitY=0;exitDx=0;exitDy=0;" edge="1" parent="1" source="PcCV99kFqNMUFxTvr8Xn-95" target="PcCV99kFqNMUFxTvr8Xn-142">
          <mxGeometry width="100" height="100" relative="1" as="geometry">
            <mxPoint x="820" y="-580" as="sourcePoint" />
            <mxPoint x="1090" y="-940" as="targetPoint" />
          </mxGeometry>
        </mxCell>
        <mxCell id="PcCV99kFqNMUFxTvr8Xn-169" value="groups contain admin/ medical/nonmedical" style="text;html=1;align=center;verticalAlign=middle;resizable=0;points=[];autosize=1;" vertex="1" parent="1">
          <mxGeometry x="1050" y="540" width="240" height="20" as="geometry" />
        </mxCell>
        <mxCell id="PcCV99kFqNMUFxTvr8Xn-170" value="permissions are specific to the groups" style="text;html=1;align=center;verticalAlign=middle;resizable=0;points=[];autosize=1;" vertex="1" parent="1">
          <mxGeometry x="1055" y="560" width="220" height="20" as="geometry" />
        </mxCell>
        <mxCell id="PcCV99kFqNMUFxTvr8Xn-171" value="LogEntry" style="shape=table;startSize=30;container=1;collapsible=1;childLayout=tableLayout;fixedRows=1;rowLines=0;fontStyle=1;align=center;resizeLast=1;" vertex="1" parent="1">
          <mxGeometry x="220" y="200" width="180" height="220" as="geometry" />
        </mxCell>
        <mxCell id="PcCV99kFqNMUFxTvr8Xn-172" value="" style="shape=partialRectangle;collapsible=0;dropTarget=0;pointerEvents=0;fillColor=none;top=0;left=0;bottom=1;right=0;points=[[0,0.5],[1,0.5]];portConstraint=eastwest;" vertex="1" parent="PcCV99kFqNMUFxTvr8Xn-171">
          <mxGeometry y="30" width="180" height="30" as="geometry" />
        </mxCell>
        <mxCell id="PcCV99kFqNMUFxTvr8Xn-173" value="id" style="shape=partialRectangle;connectable=0;fillColor=none;top=0;left=0;bottom=0;right=0;fontStyle=1;overflow=hidden;" vertex="1" parent="PcCV99kFqNMUFxTvr8Xn-172">
          <mxGeometry width="30" height="30" as="geometry" />
        </mxCell>
        <mxCell id="PcCV99kFqNMUFxTvr8Xn-174" value="user" style="shape=partialRectangle;connectable=0;fillColor=none;top=0;left=0;bottom=0;right=0;align=left;spacingLeft=6;fontStyle=5;overflow=hidden;" vertex="1" parent="PcCV99kFqNMUFxTvr8Xn-172">
          <mxGeometry x="30" width="150" height="30" as="geometry" />
        </mxCell>
        <mxCell id="PcCV99kFqNMUFxTvr8Xn-175" value="" style="shape=partialRectangle;collapsible=0;dropTarget=0;pointerEvents=0;fillColor=none;top=0;left=0;bottom=0;right=0;points=[[0,0.5],[1,0.5]];portConstraint=eastwest;" vertex="1" parent="PcCV99kFqNMUFxTvr8Xn-171">
          <mxGeometry y="60" width="180" height="30" as="geometry" />
        </mxCell>
        <mxCell id="PcCV99kFqNMUFxTvr8Xn-176" value="" style="shape=partialRectangle;connectable=0;fillColor=none;top=0;left=0;bottom=0;right=0;editable=1;overflow=hidden;" vertex="1" parent="PcCV99kFqNMUFxTvr8Xn-175">
          <mxGeometry width="30" height="30" as="geometry" />
        </mxCell>
        <mxCell id="PcCV99kFqNMUFxTvr8Xn-177" value="action_flag" style="shape=partialRectangle;connectable=0;fillColor=none;top=0;left=0;bottom=0;right=0;align=left;spacingLeft=6;overflow=hidden;" vertex="1" parent="PcCV99kFqNMUFxTvr8Xn-175">
          <mxGeometry x="30" width="150" height="30" as="geometry" />
        </mxCell>
        <mxCell id="PcCV99kFqNMUFxTvr8Xn-178" value="" style="shape=partialRectangle;collapsible=0;dropTarget=0;pointerEvents=0;fillColor=none;top=0;left=0;bottom=0;right=0;points=[[0,0.5],[1,0.5]];portConstraint=eastwest;" vertex="1" parent="PcCV99kFqNMUFxTvr8Xn-171">
          <mxGeometry y="90" width="180" height="30" as="geometry" />
        </mxCell>
        <mxCell id="PcCV99kFqNMUFxTvr8Xn-179" value="" style="shape=partialRectangle;connectable=0;fillColor=none;top=0;left=0;bottom=0;right=0;editable=1;overflow=hidden;" vertex="1" parent="PcCV99kFqNMUFxTvr8Xn-178">
          <mxGeometry width="30" height="30" as="geometry" />
        </mxCell>
        <mxCell id="PcCV99kFqNMUFxTvr8Xn-180" value="action_time" style="shape=partialRectangle;connectable=0;fillColor=none;top=0;left=0;bottom=0;right=0;align=left;spacingLeft=6;overflow=hidden;" vertex="1" parent="PcCV99kFqNMUFxTvr8Xn-178">
          <mxGeometry x="30" width="150" height="30" as="geometry" />
        </mxCell>
        <mxCell id="PcCV99kFqNMUFxTvr8Xn-181" value="" style="shape=partialRectangle;collapsible=0;dropTarget=0;pointerEvents=0;fillColor=none;top=0;left=0;bottom=0;right=0;points=[[0,0.5],[1,0.5]];portConstraint=eastwest;" vertex="1" parent="PcCV99kFqNMUFxTvr8Xn-171">
          <mxGeometry y="120" width="180" height="30" as="geometry" />
        </mxCell>
        <mxCell id="PcCV99kFqNMUFxTvr8Xn-182" value="" style="shape=partialRectangle;connectable=0;fillColor=none;top=0;left=0;bottom=0;right=0;editable=1;overflow=hidden;" vertex="1" parent="PcCV99kFqNMUFxTvr8Xn-181">
          <mxGeometry width="30" height="30" as="geometry" />
        </mxCell>
        <mxCell id="PcCV99kFqNMUFxTvr8Xn-183" value="change_message" style="shape=partialRectangle;connectable=0;fillColor=none;top=0;left=0;bottom=0;right=0;align=left;spacingLeft=6;overflow=hidden;" vertex="1" parent="PcCV99kFqNMUFxTvr8Xn-181">
          <mxGeometry x="30" width="150" height="30" as="geometry" />
        </mxCell>
        <mxCell id="PcCV99kFqNMUFxTvr8Xn-184" value="" style="shape=partialRectangle;collapsible=0;dropTarget=0;pointerEvents=0;fillColor=none;top=0;left=0;bottom=0;right=0;points=[[0,0.5],[1,0.5]];portConstraint=eastwest;" vertex="1" parent="PcCV99kFqNMUFxTvr8Xn-171">
          <mxGeometry y="150" width="180" height="30" as="geometry" />
        </mxCell>
        <mxCell id="PcCV99kFqNMUFxTvr8Xn-185" value="" style="shape=partialRectangle;connectable=0;fillColor=none;top=0;left=0;bottom=0;right=0;editable=1;overflow=hidden;" vertex="1" parent="PcCV99kFqNMUFxTvr8Xn-184">
          <mxGeometry width="30" height="30" as="geometry" />
        </mxCell>
        <mxCell id="PcCV99kFqNMUFxTvr8Xn-186" value="object_id" style="shape=partialRectangle;connectable=0;fillColor=none;top=0;left=0;bottom=0;right=0;align=left;spacingLeft=6;overflow=hidden;" vertex="1" parent="PcCV99kFqNMUFxTvr8Xn-184">
          <mxGeometry x="30" width="150" height="30" as="geometry" />
        </mxCell>
        <mxCell id="PcCV99kFqNMUFxTvr8Xn-187" value="" style="shape=partialRectangle;collapsible=0;dropTarget=0;pointerEvents=0;fillColor=none;top=0;left=0;bottom=0;right=0;points=[[0,0.5],[1,0.5]];portConstraint=eastwest;" vertex="1" parent="PcCV99kFqNMUFxTvr8Xn-171">
          <mxGeometry y="180" width="180" height="30" as="geometry" />
        </mxCell>
        <mxCell id="PcCV99kFqNMUFxTvr8Xn-188" value="" style="shape=partialRectangle;connectable=0;fillColor=none;top=0;left=0;bottom=0;right=0;editable=1;overflow=hidden;" vertex="1" parent="PcCV99kFqNMUFxTvr8Xn-187">
          <mxGeometry width="30" height="30" as="geometry" />
        </mxCell>
        <mxCell id="PcCV99kFqNMUFxTvr8Xn-189" value="object _repr" style="shape=partialRectangle;connectable=0;fillColor=none;top=0;left=0;bottom=0;right=0;align=left;spacingLeft=6;overflow=hidden;" vertex="1" parent="PcCV99kFqNMUFxTvr8Xn-187">
          <mxGeometry x="30" width="150" height="30" as="geometry" />
        </mxCell>
        <mxCell id="PcCV99kFqNMUFxTvr8Xn-190" value="" style="edgeStyle=entityRelationEdgeStyle;fontSize=12;html=1;endArrow=ERmany;startArrow=ERmany;entryX=0;entryY=0;entryDx=0;entryDy=0;" edge="1" parent="1" source="PcCV99kFqNMUFxTvr8Xn-172" target="PcCV99kFqNMUFxTvr8Xn-38">
          <mxGeometry width="100" height="100" relative="1" as="geometry">
            <mxPoint x="460" y="400" as="sourcePoint" />
            <mxPoint x="560" y="300" as="targetPoint" />
          </mxGeometry>
        </mxCell>
        <mxCell id="PcCV99kFqNMUFxTvr8Xn-191" value="App Setting" style="shape=table;startSize=30;container=1;collapsible=1;childLayout=tableLayout;fixedRows=1;rowLines=0;fontStyle=1;align=center;resizeLast=1;fillColor=#dae8fc;strokeColor=#6c8ebf;" vertex="1" parent="1">
          <mxGeometry x="20" y="-810" width="180" height="100" as="geometry" />
        </mxCell>
        <mxCell id="PcCV99kFqNMUFxTvr8Xn-192" value="" style="shape=partialRectangle;collapsible=0;dropTarget=0;pointerEvents=0;fillColor=none;top=0;left=0;bottom=0;right=0;points=[[0,0.5],[1,0.5]];portConstraint=eastwest;" vertex="1" parent="PcCV99kFqNMUFxTvr8Xn-191">
          <mxGeometry y="30" width="180" height="30" as="geometry" />
        </mxCell>
        <mxCell id="PcCV99kFqNMUFxTvr8Xn-193" value="" style="shape=partialRectangle;connectable=0;fillColor=none;top=0;left=0;bottom=0;right=0;editable=1;overflow=hidden;" vertex="1" parent="PcCV99kFqNMUFxTvr8Xn-192">
          <mxGeometry width="80" height="30" as="geometry" />
        </mxCell>
        <mxCell id="PcCV99kFqNMUFxTvr8Xn-194" value="name" style="shape=partialRectangle;connectable=0;fillColor=none;top=0;left=0;bottom=0;right=0;align=left;spacingLeft=6;overflow=hidden;" vertex="1" parent="PcCV99kFqNMUFxTvr8Xn-192">
          <mxGeometry x="80" width="100" height="30" as="geometry" />
        </mxCell>
        <mxCell id="PcCV99kFqNMUFxTvr8Xn-195" value="" style="shape=partialRectangle;collapsible=0;dropTarget=0;pointerEvents=0;fillColor=none;top=0;left=0;bottom=0;right=0;points=[[0,0.5],[1,0.5]];portConstraint=eastwest;" vertex="1" parent="PcCV99kFqNMUFxTvr8Xn-191">
          <mxGeometry y="60" width="180" height="30" as="geometry" />
        </mxCell>
        <mxCell id="PcCV99kFqNMUFxTvr8Xn-196" value="" style="shape=partialRectangle;connectable=0;fillColor=none;top=0;left=0;bottom=0;right=0;editable=1;overflow=hidden;" vertex="1" parent="PcCV99kFqNMUFxTvr8Xn-195">
          <mxGeometry width="80" height="30" as="geometry" />
        </mxCell>
        <mxCell id="PcCV99kFqNMUFxTvr8Xn-197" value="value" style="shape=partialRectangle;connectable=0;fillColor=none;top=0;left=0;bottom=0;right=0;align=left;spacingLeft=6;overflow=hidden;" vertex="1" parent="PcCV99kFqNMUFxTvr8Xn-195">
          <mxGeometry x="80" width="100" height="30" as="geometry" />
        </mxCell>
      </root>
    </mxGraphModel>
  </diagram>
</mxfile>
